<?xml version="1.0" encoding="utf-8"?>
<!-- Generator: Adobe Illustrator 16.0.0, SVG Export Plug-In . SVG Version: 6.00 Build 0)  -->
<!DOCTYPE svg PUBLIC "-//W3C//DTD SVG 1.1//EN" "http://www.w3.org/Graphics/SVG/1.1/DTD/svg11.dtd">
<svg version="1.1" id="Layer_1" xmlns="http://www.w3.org/2000/svg" xmlns:xlink="http://www.w3.org/1999/xlink" x="0px" y="0px"
	 width="245.207px" height="64.814px" viewBox="0 0 245.207 64.814" enable-background="new 0 0 245.207 64.814"
	 xml:space="preserve">
<g>
	<g>
		<path fill="#00529B" d="M63.636,0H98.17v6.233H84.293v31.944h-6.778V6.233H63.636V0z"/>
		<path fill="#00529B" d="M103.697,38.178V0h26.815v6.233h-20.011v9.161h18.532v6.233h-18.532v10.317h20.011v6.233H103.697z"/>
		<path fill="#00529B" d="M166.056,10.935c0,1.219-0.148,2.378-0.444,3.479c-0.295,1.102-0.762,2.163-1.398,3.183
			c-0.636,1.021-1.507,1.936-2.608,2.741c-1.103,0.806-2.407,1.433-3.914,1.881l11.539,15.959h-8.822l-10.704-14.803h-6.482v14.803
			h-6.778V0h16.272c0.808,0,1.547,0.022,2.22,0.067c0.672,0.045,1.487,0.152,2.446,0.322c0.96,0.171,1.812,0.399,2.555,0.685
			c0.745,0.287,1.517,0.708,2.313,1.263c0.798,0.556,1.463,1.205,1.99,1.948c0.529,0.744,0.965,1.684,1.306,2.821
			C165.885,8.244,166.056,9.52,166.056,10.935z M143.221,6.207v10.935h6.24c1.075,0,2.025-0.035,2.851-0.107
			c0.825-0.071,1.677-0.22,2.555-0.443s1.601-0.533,2.165-0.927c0.564-0.394,1.031-0.94,1.399-1.638
			c0.366-0.699,0.551-1.522,0.551-2.472c0-3.564-2.753-5.346-8.257-5.346H143.221z"/>
		<path fill="#00529B" d="M201.979,10.935c0,1.219-0.148,2.378-0.443,3.479c-0.296,1.102-0.764,2.163-1.398,3.183
			c-0.638,1.021-1.507,1.936-2.61,2.741c-1.102,0.806-2.407,1.433-3.913,1.881l11.538,15.959h-8.821l-10.705-14.803h-6.48v14.803
			h-6.779V0h16.272c0.807,0,1.547,0.022,2.219,0.067c0.673,0.045,1.489,0.152,2.448,0.322c0.959,0.171,1.811,0.399,2.555,0.685
			c0.744,0.287,1.515,0.708,2.312,1.263c0.799,0.556,1.462,1.205,1.991,1.948c0.528,0.744,0.964,1.684,1.305,2.821
			C201.809,8.244,201.979,9.52,201.979,10.935z M179.145,6.207v10.935h6.239c1.075,0,2.025-0.035,2.851-0.107
			c0.825-0.071,1.677-0.22,2.555-0.443s1.601-0.533,2.165-0.927c0.564-0.394,1.03-0.94,1.399-1.638
			c0.367-0.699,0.551-1.522,0.551-2.472c0-3.564-2.753-5.346-8.257-5.346H179.145z"/>
		<path fill="#00529B" d="M222.668,0h7.423l15.116,38.178h-6.967l-4.276-9.994h-15.601l-4.275,9.994h-6.562L222.668,0z
			 M231.598,21.977l-5.433-14.159l-5.461,14.159H231.598z"/>
	</g>
	<g>
		<path d="M63.636,64.612V52.25h1.692v12.362H63.636z"/>
		<path d="M76.236,64.612l-6.486-8.958c-0.023-0.021-0.045-0.053-0.069-0.093c-0.02-0.04-0.044-0.077-0.066-0.11
			c-0.034-0.044-0.062-0.09-0.085-0.136c0,0.057,0.006,0.107,0.018,0.152c0,0.045,0.001,0.091,0.009,0.137
			c0.004,0.045,0.006,0.083,0.006,0.118v8.89H67.87V52.25h1.439l6.399,8.789c0.022,0.034,0.049,0.073,0.077,0.119
			s0.055,0.085,0.075,0.118c0.025,0.046,0.045,0.086,0.068,0.12c-0.011-0.056-0.017-0.108-0.017-0.152
			c-0.013-0.056-0.018-0.141-0.018-0.253V52.25h1.693v12.362H76.236z"/>
		<path d="M87.038,61.343c0,0.553-0.104,1.044-0.306,1.474c-0.203,0.429-0.478,0.792-0.821,1.092
			c-0.346,0.299-0.744,0.525-1.202,0.677c-0.456,0.152-0.946,0.229-1.465,0.229c-0.631,0-1.25-0.09-1.854-0.271
			c-0.604-0.181-1.195-0.508-1.77-0.982l0.965-1.303c0.168,0.146,0.356,0.276,0.568,0.389c0.207,0.113,0.425,0.209,0.65,0.288
			s0.456,0.139,0.687,0.178c0.23,0.039,0.455,0.058,0.669,0.058c0.631,0,1.144-0.14,1.531-0.423c0.39-0.282,0.584-0.717,0.584-1.303
			c0-0.259-0.057-0.493-0.168-0.703c-0.114-0.208-0.262-0.401-0.448-0.576c-0.188-0.175-0.406-0.335-0.662-0.482
			c-0.252-0.147-0.516-0.288-0.786-0.423c-0.442-0.226-0.874-0.452-1.295-0.678c-0.425-0.226-0.805-0.488-1.144-0.787
			c-0.34-0.299-0.61-0.655-0.812-1.068c-0.204-0.411-0.306-0.911-0.306-1.498c0-0.451,0.08-0.872,0.244-1.261
			c0.161-0.39,0.395-0.729,0.704-1.016c0.309-0.289,0.68-0.511,1.119-0.669c0.438-0.159,0.936-0.238,1.489-0.238
			c0.619,0,1.211,0.09,1.77,0.271c0.558,0.182,1.079,0.441,1.565,0.779l-0.913,1.389c-0.385-0.283-0.758-0.482-1.119-0.602
			c-0.36-0.119-0.802-0.177-1.32-0.177c-0.484,0-0.903,0.118-1.254,0.355c-0.35,0.238-0.524,0.593-0.524,1.067
			c0,0.338,0.071,0.627,0.212,0.864c0.142,0.237,0.337,0.449,0.579,0.635c0.242,0.187,0.528,0.362,0.856,0.524
			c0.328,0.165,0.685,0.342,1.07,0.534c0.351,0.17,0.698,0.358,1.044,0.567c0.345,0.209,0.659,0.458,0.935,0.745
			c0.277,0.288,0.5,0.62,0.671,0.998C86.952,60.376,87.038,60.825,87.038,61.343z"/>
		<path d="M98.145,61.944c-0.248,0.604-0.587,1.117-1.017,1.542c-0.428,0.423-0.938,0.75-1.531,0.982
			c-0.592,0.231-1.233,0.347-1.922,0.347c-0.711,0-1.362-0.11-1.954-0.33c-0.595-0.221-1.103-0.542-1.524-0.965
			c-0.424-0.423-0.755-0.934-0.992-1.533c-0.237-0.598-0.355-1.28-0.355-2.047V52.25h1.71v7.676c0,0.598,0.085,1.105,0.255,1.522
			c0.17,0.417,0.397,0.756,0.686,1.014c0.287,0.26,0.621,0.448,0.999,0.567c0.379,0.118,0.769,0.178,1.177,0.178
			c0.407,0,0.799-0.06,1.177-0.178c0.378-0.119,0.715-0.311,1.008-0.574c0.294-0.266,0.53-0.604,0.71-1.015
			c0.182-0.411,0.272-0.916,0.272-1.514V52.25h1.677v7.689C98.519,60.672,98.394,61.341,98.145,61.944z"/>
		<path d="M107.661,64.612l-4.996-5.774v5.774h-1.692V52.25h3.997c0.574,0,1.097,0.097,1.567,0.289
			c0.467,0.192,0.871,0.454,1.208,0.788c0.34,0.333,0.6,0.719,0.78,1.16c0.181,0.44,0.27,0.909,0.27,1.406
			c0,0.496-0.095,0.959-0.287,1.387c-0.191,0.43-0.451,0.805-0.777,1.127c-0.329,0.321-0.703,0.573-1.127,0.753
			c-0.424,0.181-0.866,0.272-1.33,0.272l4.556,5.181H107.661z M107.036,55.832c0-0.213-0.049-0.435-0.146-0.666
			s-0.243-0.442-0.44-0.632c-0.197-0.191-0.442-0.351-0.735-0.481c-0.293-0.128-0.645-0.193-1.051-0.193h-1.999v4.233h1.967
			c0.767,0,1.359-0.21,1.775-0.633C106.826,57.038,107.036,56.496,107.036,55.832z"/>
		<path d="M119.345,64.612l-1.492-3.997h-3.942l-1.491,3.997h-1.795l4.741-12.362h1.084l4.774,12.362H119.345z M115.976,55.553
			c-0.024-0.035-0.037-0.071-0.043-0.11c-0.006-0.041-0.015-0.077-0.025-0.111c-0.011-0.044-0.023-0.084-0.034-0.119
			c-0.013,0.034-0.023,0.074-0.034,0.119c-0.012,0.035-0.021,0.071-0.024,0.111c-0.007,0.039-0.014,0.069-0.025,0.092l-1.288,3.471
			h2.759L115.976,55.553z"/>
		<path d="M131.282,64.612l-6.485-8.958c-0.022-0.021-0.046-0.053-0.067-0.093c-0.022-0.04-0.046-0.077-0.068-0.11
			c-0.033-0.044-0.062-0.09-0.084-0.136c0,0.057,0.005,0.107,0.017,0.152c0,0.045,0.003,0.091,0.009,0.137
			c0.006,0.045,0.009,0.083,0.009,0.118v8.89h-1.694V52.25h1.438l6.402,8.789c0.021,0.034,0.048,0.073,0.075,0.119
			s0.054,0.085,0.076,0.118c0.022,0.046,0.046,0.086,0.067,0.12c-0.011-0.056-0.017-0.108-0.017-0.152
			c-0.012-0.056-0.016-0.141-0.016-0.253V52.25h1.693v12.362H131.282z"/>
		<path d="M143.635,64.154c-0.841,0.44-1.811,0.66-2.905,0.66c-0.756,0-1.496-0.149-2.218-0.448c-0.724-0.3-1.368-0.723-1.938-1.27
			c-0.57-0.548-1.031-1.217-1.38-2.007c-0.351-0.79-0.525-1.676-0.525-2.658c0-0.892,0.152-1.728,0.458-2.506
			c0.304-0.778,0.727-1.456,1.268-2.033c0.544-0.575,1.191-1.027,1.941-1.354c0.75-0.328,1.57-0.491,2.462-0.491
			c1.118,0,2.036,0.175,2.754,0.524c0.714,0.35,1.32,0.819,1.818,1.406l-1.253,1.117c-0.43-0.439-0.914-0.781-1.456-1.024
			c-0.541-0.243-1.152-0.364-1.829-0.364c-0.598,0-1.164,0.113-1.701,0.338c-0.536,0.227-1.004,0.543-1.405,0.949
			c-0.4,0.406-0.718,0.898-0.948,1.473c-0.233,0.576-0.348,1.22-0.348,1.932c0,0.8,0.136,1.498,0.406,2.09
			c0.271,0.593,0.619,1.086,1.041,1.481c0.424,0.396,0.894,0.691,1.406,0.889c0.513,0.198,1.007,0.297,1.481,0.297
			c0.599,0,1.22-0.13,1.863-0.39c0.642-0.259,1.23-0.7,1.759-1.321l1.221,1.05C145.132,63.162,144.474,63.714,143.635,64.154z"/>
		<path d="M147.535,64.612V52.25h6.91v1.609h-5.216v3.912h5.099v1.608h-5.099v3.624h5.538v1.609H147.535z"/>
		<path d="M171.897,64.154c-0.841,0.44-1.809,0.66-2.904,0.66c-0.755,0-1.496-0.149-2.217-0.448c-0.722-0.3-1.369-0.723-1.938-1.27
			c-0.571-0.548-1.032-1.217-1.381-2.007c-0.351-0.79-0.525-1.676-0.525-2.658c0-0.892,0.152-1.728,0.457-2.506
			c0.306-0.778,0.728-1.456,1.271-2.033c0.541-0.575,1.188-1.027,1.94-1.354c0.748-0.328,1.568-0.491,2.461-0.491
			c1.119,0,2.036,0.175,2.753,0.524c0.717,0.35,1.322,0.819,1.82,1.406l-1.256,1.117c-0.427-0.439-0.913-0.781-1.454-1.024
			c-0.54-0.243-1.151-0.364-1.829-0.364c-0.598,0-1.165,0.113-1.701,0.338c-0.537,0.227-1.004,0.543-1.406,0.949
			c-0.4,0.406-0.716,0.898-0.947,1.473c-0.231,0.576-0.346,1.22-0.346,1.932c0,0.8,0.135,1.498,0.405,2.09
			c0.27,0.593,0.617,1.086,1.041,1.481c0.422,0.396,0.892,0.691,1.405,0.889c0.513,0.198,1.006,0.297,1.482,0.297
			c0.597,0,1.219-0.13,1.861-0.39c0.645-0.259,1.231-0.7,1.76-1.321l1.221,1.05C173.396,63.162,172.737,63.714,171.897,64.154z"/>
		<path d="M187.451,58.431c0,0.903-0.169,1.742-0.5,2.515c-0.334,0.773-0.786,1.447-1.354,2.023c-0.57,0.576-1.24,1.027-2.007,1.354
			c-0.769,0.328-1.587,0.491-2.456,0.491c-0.881,0-1.708-0.161-2.48-0.482c-0.773-0.322-1.446-0.765-2.024-1.33
			c-0.574-0.564-1.027-1.238-1.354-2.024c-0.327-0.784-0.491-1.645-0.491-2.581c0-0.904,0.158-1.742,0.475-2.516
			c0.316-0.773,0.754-1.445,1.312-2.015s1.222-1.016,1.991-1.338c0.767-0.321,1.597-0.482,2.489-0.482
			c0.958,0,1.829,0.164,2.616,0.491c0.782,0.327,1.455,0.779,2.015,1.354c0.558,0.577,0.993,1.254,1.304,2.033
			C187.295,56.704,187.451,57.54,187.451,58.431z M185.689,58.363c0-0.665-0.113-1.284-0.339-1.854
			c-0.227-0.569-0.543-1.06-0.948-1.474c-0.405-0.411-0.896-0.735-1.464-0.973c-0.571-0.237-1.195-0.355-1.872-0.355
			c-0.665,0-1.278,0.118-1.837,0.355c-0.559,0.238-1.036,0.562-1.431,0.973c-0.395,0.414-0.703,0.906-0.923,1.483
			c-0.222,0.576-0.33,1.202-0.33,1.88c0,0.688,0.123,1.323,0.373,1.904c0.249,0.583,0.582,1.084,1.007,1.508
			c0.423,0.423,0.912,0.753,1.463,0.99c0.553,0.237,1.136,0.356,1.745,0.356s1.188-0.111,1.734-0.331
			c0.549-0.22,1.031-0.539,1.45-0.957c0.416-0.418,0.75-0.92,0.998-1.507C185.564,59.775,185.689,59.108,185.689,58.363z"/>
		<path d="M199.911,64.612v-9.094c0-0.056,0-0.111,0-0.168c0-0.057,0.007-0.107,0.019-0.152c0-0.044,0.005-0.096,0.017-0.153
			c-0.022,0.034-0.046,0.074-0.068,0.119c-0.045,0.09-0.08,0.146-0.102,0.169l-3.877,5.232h-0.679l-3.91-5.097
			c-0.024-0.022-0.043-0.051-0.058-0.084c-0.02-0.034-0.038-0.062-0.06-0.084c-0.023-0.034-0.041-0.068-0.054-0.102
			c0,0.056,0.006,0.107,0.019,0.152c0,0.045,0.002,0.094,0.01,0.144c0.005,0.051,0.007,0.104,0.007,0.161v8.958h-1.692V52.25h1.439
			l4.655,6.046l4.521-6.046h1.506v12.362H199.911z"/>
		<path d="M211.899,56.061c0,0.496-0.1,0.968-0.304,1.414c-0.203,0.446-0.473,0.838-0.812,1.177
			c-0.338,0.339-0.734,0.607-1.186,0.804c-0.452,0.197-0.926,0.296-1.422,0.296h-2.337v4.86h-1.693V52.25h3.709
			c0.621,0,1.182,0.1,1.684,0.297c0.502,0.198,0.928,0.466,1.279,0.805c0.351,0.337,0.618,0.739,0.804,1.202
			C211.806,55.017,211.899,55.518,211.899,56.061z M210.141,55.959c0-0.671-0.226-1.19-0.679-1.554
			c-0.451-0.364-1.072-0.546-1.861-0.546h-1.762v4.284h1.862c0.712,0,1.296-0.188,1.753-0.563S210.141,56.665,210.141,55.959z"/>
		<path d="M220.062,64.612l-1.489-3.997h-3.945l-1.49,3.997h-1.796l4.743-12.362h1.083l4.773,12.362H220.062z M216.692,55.553
			c-0.021-0.035-0.037-0.071-0.042-0.11c-0.003-0.041-0.015-0.077-0.024-0.111c-0.011-0.044-0.022-0.084-0.035-0.119
			c-0.009,0.034-0.021,0.074-0.032,0.119c-0.011,0.035-0.021,0.071-0.026,0.111c-0.005,0.039-0.014,0.069-0.025,0.092l-1.287,3.471
			h2.761L216.692,55.553z"/>
		<path d="M232,64.612l-6.483-8.958c-0.024-0.021-0.047-0.053-0.068-0.093c-0.024-0.04-0.045-0.077-0.068-0.11
			c-0.032-0.044-0.062-0.09-0.086-0.136c0,0.057,0.006,0.107,0.02,0.152c0,0.045,0,0.091,0.008,0.137
			c0.006,0.045,0.008,0.083,0.008,0.118v8.89h-1.693V52.25h1.439l6.399,8.789c0.022,0.034,0.049,0.073,0.077,0.119
			c0.026,0.045,0.055,0.085,0.074,0.118c0.025,0.046,0.046,0.086,0.07,0.12c-0.013-0.056-0.018-0.108-0.018-0.152
			c-0.011-0.056-0.017-0.141-0.017-0.253V52.25h1.692v12.362H232z"/>
		<path d="M240.907,58.872v5.74h-1.693v-5.74l-4.25-6.622h1.963l2.979,4.624c0.022,0.022,0.044,0.056,0.062,0.102
			c0.016,0.045,0.037,0.084,0.058,0.119c0.023,0.045,0.046,0.09,0.068,0.135c0.022-0.044,0.046-0.09,0.067-0.135
			c0.023-0.034,0.046-0.074,0.068-0.119c0.023-0.045,0.044-0.085,0.067-0.12l2.98-4.605h1.93L240.907,58.872z"/>
	</g>
	<g>
		<polygon fill="#00529B" points="20.998,32.438 20.963,32.384 30.558,32.384 51.522,0.02 51.522,0 0,0 0,64.814 0.014,64.814 
			0.014,64.79 		"/>
		<polygon fill="#B5CB8B" points="51.522,64.771 51.522,0.02 30.558,32.384 20.963,32.384 20.998,32.438 0.014,64.79 0.014,64.814 
			51.522,64.814 		"/>
	</g>
	<g>
		<rect x="63.636" y="44.974" width="181.571" height="0.434"/>
	</g>
</g>
</svg>
